<svg width="20" height="20" viewBox="0 0 20 20" fill="none" xmlns="http://www.w3.org/2000/svg">
<circle cx="10" cy="10" r="10" fill="url(#paint0_linear_1129_2456)"/>
<path d="M9.12083 15V7.36364H11.8651V15H9.12083ZM10.493 6.56818C10.1218 6.56818 9.80359 6.44555 9.53844 6.20028C9.27329 5.95502 9.14071 5.66004 9.14071 5.31534C9.14071 4.97064 9.27329 4.67566 9.53844 4.4304C9.80359 4.18513 10.1218 4.0625 10.493 4.0625C10.8675 4.0625 11.1857 4.18513 11.4475 4.4304C11.7127 4.67566 11.8453 4.97064 11.8453 5.31534C11.8453 5.66004 11.7127 5.95502 11.4475 6.20028C11.1857 6.44555 10.8675 6.56818 10.493 6.56818Z" fill="#1B1B1B"/>
<defs>
<linearGradient id="paint0_linear_1129_2456" x1="-1.58416" y1="-4.36623" x2="20.7265" y2="-3.98322" gradientUnits="userSpaceOnUse">
<stop stop-color="#3FA89C"/>
<stop offset="1" stop-color="#446BEE"/>
</linearGradient>
</defs>
</svg>
