<svg width="21" height="20" viewBox="0 0 21 20" fill="none" xmlns="http://www.w3.org/2000/svg">
<circle cx="10.3264" cy="10" r="10" fill="url(#paint0_linear_103_1162)"/>
<path d="M8.95115 15V7.36364H11.6955V15H8.95115ZM10.3233 6.56818C9.9521 6.56818 9.63391 6.44555 9.36876 6.20028C9.10361 5.95502 8.97104 5.66004 8.97104 5.31534C8.97104 4.97064 9.10361 4.67566 9.36876 4.4304C9.63391 4.18513 9.9521 4.0625 10.3233 4.0625C10.6978 4.0625 11.016 4.18513 11.2779 4.4304C11.543 4.67566 11.6756 4.97064 11.6756 5.31534C11.6756 5.66004 11.543 5.95502 11.2779 6.20028C11.016 6.44555 10.6978 6.56818 10.3233 6.56818Z" fill="#1B1B1B"/>
<defs>
<linearGradient id="paint0_linear_103_1162" x1="-1.25774" y1="-4.36623" x2="21.0529" y2="-3.98322" gradientUnits="userSpaceOnUse">
<stop stop-color="#67E646"/>
<stop offset="1" stop-color="#26BA3F"/>
</linearGradient>
</defs>
</svg>
