<svg width="18" height="15" viewBox="0 0 18 15" fill="none" xmlns="http://www.w3.org/2000/svg">
<path fill-rule="evenodd" clip-rule="evenodd" d="M4.5 3C4.5 3.62132 5.00368 4.125 5.625 4.125H15.75C16.3713 4.125 16.875 3.62132 16.875 3C16.875 2.37868 16.3713 1.875 15.75 1.875H5.625C5.00368 1.875 4.5 2.37868 4.5 3ZM15.75 6.375C16.3713 6.375 16.875 6.87868 16.875 7.5C16.875 8.12132 16.3713 8.625 15.75 8.625H5.625C5.00368 8.625 4.5 8.12132 4.5 7.5C4.5 6.87868 5.00368 6.375 5.625 6.375H15.75ZM2.25 6.375C2.87132 6.375 3.375 6.87868 3.375 7.5C3.375 8.12132 2.87132 8.625 2.25 8.625C1.62868 8.625 1.125 8.12132 1.125 7.5C1.125 6.87868 1.62868 6.375 2.25 6.375ZM2.25 4.125C1.62868 4.125 1.125 3.62132 1.125 3C1.125 2.37868 1.62868 1.875 2.25 1.875C2.87132 1.875 3.375 2.37868 3.375 3C3.375 3.62132 2.87132 4.125 2.25 4.125ZM4.5 12C4.5 11.3787 5.00368 10.875 5.625 10.875H15.75C16.3713 10.875 16.875 11.3787 16.875 12C16.875 12.6213 16.3713 13.125 15.75 13.125H5.625C5.00368 13.125 4.5 12.6213 4.5 12ZM2.25 10.875C1.62868 10.875 1.125 11.3787 1.125 12C1.125 12.6213 1.62868 13.125 2.25 13.125C2.87132 13.125 3.375 12.6213 3.375 12C3.375 11.3787 2.87132 10.875 2.25 10.875Z" fill="white"/>
</svg>
