<svg width="25" height="25" viewBox="0 0 25 25" fill="none" xmlns="http://www.w3.org/2000/svg">
<rect width="25" height="25" rx="12.5" fill="#262626"/>
<path d="M11.4634 14.4096H13.5776L14.6404 15.7769L15.686 16.9948L17.6565 19.4652H15.3355L13.9797 17.7991L13.2846 16.811L11.4634 14.4096ZM17.8346 12.6172C17.8346 13.9002 17.5914 14.9918 17.105 15.8918C16.6224 16.7918 15.9637 17.4793 15.1287 17.9542C14.2976 18.4253 13.3631 18.6609 12.3252 18.6609C11.2796 18.6609 10.3413 18.4234 9.51016 17.9485C8.67906 17.4736 8.02222 16.7861 7.53965 15.886C7.05707 14.986 6.81578 13.8964 6.81578 12.6172C6.81578 11.3341 7.05707 10.2426 7.53965 9.34255C8.02222 8.44251 8.67906 7.75694 9.51016 7.28586C10.3413 6.81094 11.2796 6.57348 12.3252 6.57348C13.3631 6.57348 14.2976 6.81094 15.1287 7.28586C15.9637 7.75694 16.6224 8.44251 17.105 9.34255C17.5914 10.2426 17.8346 11.3341 17.8346 12.6172ZM15.3126 12.6172C15.3126 11.7861 15.1881 11.0852 14.9391 10.5145C14.694 9.94386 14.3474 9.51107 13.8993 9.21616C13.4512 8.92125 12.9265 8.7738 12.3252 8.7738C11.7239 8.7738 11.1992 8.92125 10.7511 9.21616C10.303 9.51107 9.95444 9.94386 9.70549 10.5145C9.46037 11.0852 9.33782 11.7861 9.33782 12.6172C9.33782 13.4483 9.46037 14.1492 9.70549 14.7198C9.95444 15.2905 10.303 15.7233 10.7511 16.0182C11.1992 16.3131 11.7239 16.4605 12.3252 16.4605C12.9265 16.4605 13.4512 16.3131 13.8993 16.0182C14.3474 15.7233 14.694 15.2905 14.9391 14.7198C15.1881 14.1492 15.3126 13.4483 15.3126 12.6172Z" fill="url(#paint0_linear_453_1050)"/>
<defs>
<linearGradient id="paint0_linear_453_1050" x1="4.92277" y1="-1.86623" x2="20.0964" y2="-1.6891" gradientUnits="userSpaceOnUse">
<stop stop-color="#446AEF"/>
<stop offset="1" stop-color="#002BC2"/>
</linearGradient>
</defs>
</svg>
