<svg width="12" height="13" viewBox="0 0 12 13" fill="none" xmlns="http://www.w3.org/2000/svg">
<path d="M0.666766 4.16721H9.33386L8.26664 4.96713C8.19675 5.02002 8.13821 5.08609 8.09287 5.1607C8.04849 5.23625 8.0192 5.32032 8.00693 5.40626C7.99465 5.49315 7.99939 5.58195 8.02111 5.666C8.04283 5.751 8.0806 5.8313 8.13348 5.90119C8.19582 5.98336 8.27609 6.05131 8.36864 6.09758C8.4612 6.14386 8.56321 6.16751 8.66709 6.16751C8.81065 6.16751 8.95137 6.12124 9.06659 6.03435L11.7337 4.03399C11.8149 3.97166 11.881 3.8914 11.9263 3.79979C11.9726 3.70818 11.9962 3.60713 11.9962 3.50419C11.9962 3.40124 11.9726 3.3002 11.9263 3.20859C11.881 3.11698 11.8149 3.03672 11.7337 2.97438L9.16009 0.974028C9.02032 0.865418 8.84371 0.816325 8.66804 0.838047C8.49238 0.860713 8.33182 0.951384 8.22321 1.09116C8.1146 1.22999 8.06548 1.40754 8.08815 1.58321C8.10987 1.75887 8.20053 1.91846 8.34031 2.02707L9.38675 2.8346H0.666766C0.490156 2.8346 0.320165 2.90448 0.195499 3.02915C0.069889 3.15476 0 3.32377 0 3.50038C0 3.67794 0.069889 3.84699 0.195499 3.9726C0.320165 4.09727 0.490156 4.16721 0.666766 4.16721ZM11.3332 8.83457H2.66709L3.73336 8.03465C3.87502 7.92792 3.96852 7.77018 3.99307 7.59546C4.01857 7.41979 3.97324 7.24225 3.86652 7.10059C3.76074 6.95986 3.60302 6.8664 3.42736 6.8409C3.25264 6.81634 3.07507 6.86165 2.93341 6.96743L0.266343 8.96773C0.185122 9.03006 0.119002 9.11038 0.0736688 9.20199C0.0283359 9.2936 0.00472679 9.39464 0.00472679 9.49759C0.00472679 9.60053 0.0283359 9.70158 0.0736688 9.79319C0.119002 9.8848 0.185122 9.96506 0.266343 10.0274L2.83991 12.0277C2.95607 12.1184 3.09963 12.1675 3.24696 12.1675C3.34896 12.1675 3.44907 12.1439 3.54068 12.0985C3.63135 12.0541 3.71163 11.9881 3.77302 11.9078C3.88163 11.769 3.93075 11.5923 3.90903 11.4176C3.88825 11.2429 3.79852 11.0833 3.65969 10.9747L2.61325 10.1672H11.3332C11.5108 10.1672 11.6798 10.0973 11.8045 9.97263C11.9301 9.84702 12 9.67794 12 9.50133C12 9.32378 11.9301 9.15473 11.8045 9.02912C11.6798 8.90445 11.5108 8.83457 11.3332 8.83457Z" fill="white"/>
</svg>
