<svg width="641" height="640" viewBox="0 0 641 640" fill="none" xmlns="http://www.w3.org/2000/svg">
<circle cx="320" cy="320" r="320" fill="#FF007A"/>
<path d="M264.44 170.797C260.088 170.122 259.904 170.043 261.952 169.728C265.877 169.124 275.145 169.947 281.533 171.465C296.443 175.01 310.011 184.089 324.493 200.214L328.341 204.498L333.845 203.613C357.033 199.887 380.622 202.848 400.352 211.962C405.779 214.47 414.337 219.462 415.406 220.745C415.748 221.153 416.373 223.785 416.796 226.593C418.262 236.307 417.529 243.753 414.557 249.314C412.941 252.341 412.85 253.3 413.937 255.89C414.805 257.957 417.224 259.487 419.62 259.484C424.523 259.477 429.8 251.551 432.245 240.522L433.217 236.142L435.141 238.321C445.695 250.279 453.985 266.587 455.409 278.195L455.78 281.221L454.006 278.469C450.952 273.735 447.885 270.512 443.957 267.913C436.875 263.227 429.388 261.633 409.559 260.588C391.649 259.644 381.513 258.114 371.462 254.837C354.363 249.261 345.742 241.836 325.43 215.186C316.408 203.349 310.831 196.8 305.284 191.525C292.679 179.541 280.294 173.256 264.44 170.797Z" fill="white"/>
<path d="M419.446 197.227C419.897 189.295 420.972 184.063 423.135 179.285C423.991 177.394 424.793 175.846 424.917 175.846C425.04 175.846 424.669 177.242 424.09 178.948C422.517 183.585 422.259 189.927 423.342 197.306C424.717 206.669 425.499 208.019 435.394 218.134C440.036 222.877 445.435 228.86 447.392 231.429L450.951 236.1L447.392 232.761C443.04 228.68 433.031 220.719 430.82 219.581C429.339 218.818 429.118 218.831 428.203 219.741C427.361 220.58 427.184 221.84 427.067 227.797C426.885 237.081 425.619 243.041 422.565 249C420.913 252.223 420.653 251.535 422.148 247.897C423.264 245.181 423.377 243.987 423.369 234.999C423.352 216.94 421.208 212.599 408.634 205.161C405.449 203.277 400.201 200.559 396.972 199.122C393.743 197.685 391.178 196.433 391.271 196.34C391.627 195.985 403.889 199.564 408.824 201.462C416.165 204.286 417.377 204.652 418.269 204.312C418.866 204.084 419.155 202.343 419.446 197.227Z" fill="white"/>
<path d="M272.894 228.12C264.058 215.956 258.592 197.305 259.775 183.362L260.141 179.047L262.152 179.415C265.93 180.104 272.441 182.528 275.491 184.38C283.859 189.462 287.482 196.153 291.168 213.335C292.247 218.367 293.664 224.063 294.315 225.991C295.365 229.095 299.33 236.344 302.553 241.052C304.875 244.442 303.333 246.049 298.2 245.586C290.362 244.878 279.744 237.551 272.894 228.12Z" fill="white"/>
<path d="M408.729 318.656C367.436 302.03 352.893 287.599 352.893 263.25C352.893 259.666 353.017 256.734 353.166 256.734C353.317 256.734 354.915 257.917 356.717 259.363C365.09 266.078 374.467 268.947 400.425 272.734C415.699 274.963 424.295 276.762 432.224 279.392C457.428 287.75 473.021 304.713 476.739 327.817C477.82 334.53 477.186 347.119 475.434 353.755C474.051 358.995 469.831 368.441 468.711 368.803C468.401 368.904 468.097 367.715 468.017 366.096C467.592 357.421 463.208 348.975 455.846 342.648C447.475 335.455 436.228 329.728 408.729 318.656Z" fill="white"/>
<path d="M379.74 325.563C379.222 322.484 378.325 318.553 377.745 316.826L376.692 313.687L378.649 315.883C381.357 318.923 383.497 322.813 385.311 327.993C386.695 331.948 386.851 333.123 386.841 339.549C386.83 345.857 386.657 347.18 385.379 350.738C383.363 356.351 380.862 360.33 376.664 364.602C369.121 372.278 359.423 376.528 345.429 378.292C342.996 378.598 335.907 379.114 329.674 379.438C313.965 380.255 303.626 381.943 294.337 385.205C293.001 385.674 291.809 385.959 291.688 385.838C291.312 385.464 297.637 381.693 302.861 379.177C310.227 375.628 317.56 373.692 333.99 370.956C342.106 369.604 350.488 367.964 352.616 367.312C372.715 361.15 383.046 345.247 379.74 325.563Z" fill="white"/>
<path d="M398.669 359.18C393.183 347.386 391.923 335.999 394.928 325.379C395.25 324.244 395.767 323.315 396.078 323.315C396.389 323.315 397.684 324.016 398.955 324.871C401.483 326.573 406.553 329.439 420.062 336.804C436.919 345.995 446.529 353.111 453.066 361.242C458.789 368.363 462.331 376.472 464.037 386.361C465.001 391.963 464.436 405.442 462.999 411.083C458.467 428.868 447.933 442.838 432.909 450.99C430.707 452.185 428.732 453.166 428.518 453.17C428.304 453.174 429.106 451.135 430.3 448.638C435.354 438.073 435.93 427.796 432.109 416.358C429.769 409.354 424.999 400.808 415.367 386.364C404.169 369.571 401.423 365.101 398.669 359.18Z" fill="white"/>
<path d="M243.57 422.813C258.894 409.875 277.959 400.684 295.327 397.863C302.811 396.646 315.28 397.129 322.211 398.903C333.321 401.746 343.259 408.114 348.427 415.701C353.479 423.117 355.646 429.578 357.902 443.956C358.792 449.627 359.76 455.322 360.053 456.612C361.747 464.063 365.045 470.019 369.13 473.01C375.62 477.759 386.795 478.055 397.787 473.767C399.654 473.039 401.273 472.536 401.387 472.65C401.786 473.045 396.251 476.752 392.345 478.702C387.091 481.326 382.912 482.342 377.36 482.342C367.292 482.342 358.933 477.219 351.958 466.776C350.586 464.721 347.5 458.564 345.102 453.096C337.738 436.299 334.102 431.182 325.551 425.582C318.11 420.71 308.513 419.837 301.294 423.377C291.811 428.027 289.165 440.145 295.957 447.826C298.656 450.878 303.69 453.511 307.807 454.022C315.508 454.98 322.126 449.122 322.126 441.347C322.126 436.298 320.185 433.418 315.301 431.213C308.629 428.203 301.458 431.721 301.492 437.989C301.507 440.662 302.671 442.34 305.349 443.552C307.068 444.33 307.108 444.392 305.706 444.1C299.585 442.831 298.151 435.451 303.073 430.552C308.982 424.67 321.201 427.266 325.398 435.294C327.16 438.666 327.365 445.382 325.828 449.437C322.388 458.514 312.359 463.287 302.184 460.689C295.258 458.92 292.437 457.006 284.086 448.403C269.573 433.454 263.939 430.557 243.017 427.291L239.008 426.665L243.57 422.813Z" fill="white"/>
<path fill-rule="evenodd" clip-rule="evenodd" d="M134.138 87.9417C182.602 146.764 257.32 238.346 261.03 243.473C264.093 247.707 262.94 251.513 257.694 254.496C254.776 256.155 248.776 257.835 245.773 257.835C242.376 257.835 238.549 256.199 235.762 253.556C233.792 251.687 225.842 239.816 207.488 211.338C193.445 189.548 181.693 171.472 181.373 171.169C180.631 170.469 180.644 170.493 206.056 215.962C222.013 244.514 227.4 254.608 227.4 255.958C227.4 258.704 226.651 260.147 223.264 263.925C217.617 270.225 215.093 277.302 213.271 291.951C211.228 308.372 205.484 319.972 189.566 339.824C180.248 351.445 178.723 353.575 176.372 358.259C173.41 364.157 172.596 367.461 172.266 374.909C171.918 382.784 172.597 387.871 175.003 395.4C177.109 401.992 179.308 406.344 184.928 415.051C189.779 422.563 192.572 428.146 192.572 430.33C192.572 432.067 192.904 432.07 200.42 430.373C218.407 426.31 233.013 419.166 241.228 410.412C246.311 404.993 247.505 402 247.544 394.575C247.569 389.718 247.398 388.701 246.086 385.907C243.948 381.359 240.058 377.577 231.482 371.715C220.246 364.034 215.447 357.85 214.121 349.346C213.033 342.368 214.295 337.444 220.511 324.417C226.945 310.932 228.539 305.185 229.618 291.593C230.314 282.81 231.279 279.347 233.802 276.568C236.433 273.668 238.802 272.687 245.315 271.797C255.932 270.347 262.692 267.6 268.249 262.479C273.07 258.037 275.087 253.757 275.397 247.313L275.632 242.429L272.938 239.288C263.182 227.913 127.604 79 127.004 79C126.876 79 130.086 83.0241 134.138 87.9417ZM198.048 383.819C200.254 379.913 199.082 374.891 195.392 372.438C191.906 370.12 186.49 371.212 186.49 374.232C186.49 375.154 187.001 375.825 188.149 376.417C190.083 377.412 190.224 378.531 188.702 380.819C187.161 383.135 187.285 385.172 189.053 386.556C191.902 388.787 195.936 387.56 198.048 383.819Z" fill="white"/>
<path fill-rule="evenodd" clip-rule="evenodd" d="M282.332 274.359C277.348 275.89 272.503 281.173 271.003 286.712C270.088 290.091 270.607 296.019 271.978 297.849C274.192 300.806 276.333 301.585 282.131 301.544C293.481 301.465 303.348 296.597 304.496 290.511C305.437 285.522 301.102 278.608 295.133 275.574C292.053 274.008 285.502 273.386 282.332 274.359ZM295.601 284.735C297.352 282.248 296.586 279.56 293.609 277.742C287.94 274.28 279.366 277.145 279.366 282.501C279.366 285.167 283.837 288.075 287.935 288.075C290.663 288.075 294.396 286.449 295.601 284.735Z" fill="white"/>
</svg>
