<svg width="25" height="25" viewBox="0 0 25 25" fill="none" xmlns="http://www.w3.org/2000/svg">
<rect width="25" height="25" rx="12.5" fill="#262626"/>
<path d="M14.8629 7.36364H17.3232V14.9205C17.3232 15.7689 17.1205 16.5114 16.7152 17.1477C16.3137 17.7841 15.7512 18.2803 15.0277 18.6364C14.3042 18.9886 13.4614 19.1648 12.4993 19.1648C11.5334 19.1648 10.6887 18.9886 9.9652 18.6364C9.24171 18.2803 8.67921 17.7841 8.2777 17.1477C7.87618 16.5114 7.67543 15.7689 7.67543 14.9205V7.36364H10.1357V14.7102C10.1357 15.1534 10.2322 15.5473 10.4254 15.892C10.6224 16.2367 10.8989 16.5076 11.255 16.7045C11.611 16.9015 12.0258 17 12.4993 17C12.9766 17 13.3913 16.9015 13.7436 16.7045C14.0997 16.5076 14.3743 16.2367 14.5675 15.892C14.7644 15.5473 14.8629 15.1534 14.8629 14.7102V7.36364Z" fill="url(#paint0_linear_468_1198)"/>
<defs>
<linearGradient id="paint0_linear_468_1198" x1="2.65347" y1="-4.45779" x2="21.6206" y2="-4.23638" gradientUnits="userSpaceOnUse">
<stop stop-color="#26A17B"/>
<stop offset="1" stop-color="#009FC2"/>
</linearGradient>
</defs>
</svg>
